<?xml version="1.0" encoding="utf-8"?>
<!-- Generator: Adobe Illustrator 16.0.0, SVG Export Plug-In . SVG Version: 6.00 Build 0)  -->
<!DOCTYPE svg PUBLIC "-//W3C//DTD SVG 1.1//EN" "http://www.w3.org/Graphics/SVG/1.1/DTD/svg11.dtd">
<svg version="1.1" id="Layer_1" xmlns="http://www.w3.org/2000/svg" xmlns:xlink="http://www.w3.org/1999/xlink" x="0px" y="0px"
	 width="224.929px" height="131.293px" viewBox="0 0 224.929 131.293" enable-background="new 0 0 224.929 131.293"
	 xml:space="preserve">
<g>
	<path fill="#FDFDFE" d="M115.029,23.188h0.548c1.187,0,2.329,0.049,3.429,0.153c1.096,0.101,2.152,0.255,3.153,0.459
		c1.009,0.206,1.963,0.446,2.858,0.718c0.898,0.268,1.747,0.575,2.54,0.914c0.795,0.337,1.537,0.69,2.229,1.062
		c0.689,0.37,1.324,0.756,1.912,1.167c0.579,0.405,1.118,0.816,1.61,1.225c0.486,0.411,0.933,0.826,1.337,1.25
		c0.703,0.701,1.353,1.448,1.949,2.227c0.594,0.778,1.142,1.596,1.632,2.458c0.498,0.859,0.928,1.742,1.297,2.643
		c0.363,0.902,0.666,1.831,0.914,2.787c0.245,0.958,0.434,1.923,0.553,2.901c0.125,0.987,0.186,1.981,0.186,2.993
		c0,1.013-0.056,2.004-0.176,2.975c-0.123,0.955-0.303,1.896-0.542,2.809c-0.24,0.911-0.538,1.79-0.887,2.637
		c-0.345,0.845-0.751,1.661-1.203,2.442c-0.447,0.776-0.938,1.515-1.482,2.218c-0.535,0.707-1.122,1.377-1.754,2.01V61.23
		c-0.631,0.634-1.313,1.244-2.048,1.818c-0.721,0.569-1.498,1.106-2.327,1.611l-0.002,0.002c-0.716,0.424-1.488,0.81-2.307,1.15
		c-0.814,0.342-1.683,0.646-2.593,0.906c-0.929,0.261-2.019,0.457-3.269,0.588c-1.241,0.131-2.652,0.193-4.203,0.193H98.717h-0.248
		v-0.25v-0.477v-0.245h0.248h0.604c0.638,0,1.198-0.124,1.675-0.362c0.469-0.242,0.861-0.596,1.17-1.072
		c0.325-0.499,0.573-1.008,0.736-1.531c0.157-0.521,0.237-1.059,0.237-1.614v-6.107l5.01-13.944v18.325
		c0,1.654,0.264,2.869,0.78,3.628c0.246,0.371,0.571,0.676,0.959,0.914c0.403,0.251,0.875,0.432,1.426,0.546
		c0.566,0.117,1.266,0.203,2.101,0.262c0.835,0.06,1.804,0.09,2.901,0.09c1.578,0,3.026-0.08,4.356-0.232
		c1.328-0.154,2.532-0.387,3.616-0.694v0.005c1.063-0.31,2.117-0.807,3.151-1.488c1.038-0.686,2.063-1.563,3.074-2.631
		c0.73-0.785,1.399-1.662,1.996-2.633s1.124-2.033,1.576-3.174c0.448-1.152,0.785-2.417,1.015-3.802
		c0.223-1.39,0.34-2.902,0.34-4.54c0-2.576-0.361-5.127-1.089-7.653c-0.473-1.626-1.224-3.373-2.199-5.032
		c-0.891-1.51-1.973-2.942-3.207-4.134c-3.719-3.574-9.467-4.223-14.898-4.17c0.205-0.536,0.416-1.077,0.647-1.596
		C114.805,23.651,114.913,23.416,115.029,23.188 M119.451,16.4v0.539v0.243v0.107l-0.105,0.007l-0.24,0.018
		c-0.803,0.06-1.486,0.309-2.082,0.696c-0.597,0.391-1.106,0.925-1.55,1.545c-0.461,0.643-0.849,1.382-1.202,2.165
		c-0.35,0.789-0.66,1.613-0.947,2.429L99.423,62.849l-0.061,0.174l-0.026,0.071l-0.082,0.003h-0.182l-1.332,0.005l-0.181,0.005
		h-0.076l-0.028-0.079l-0.069-0.167c-1.673-4.407-3.339-8.729-5.004-13.055l-0.05-0.123l-0.015-0.039
		c-3.561-9.238-7.131-18.495-10.481-27.776c-0.136-0.39-0.291-0.756-0.456-1.102c-0.164-0.343-0.34-0.661-0.521-0.95
		c-0.18-0.287-0.375-0.545-0.572-0.779l-0.005-0.001c-0.195-0.232-0.406-0.438-0.622-0.615c-0.232-0.191-0.479-0.354-0.735-0.492
		c-0.258-0.143-0.531-0.26-0.821-0.352l-0.064-0.021c-0.271-0.083-0.554-0.143-0.847-0.182c-0.326-0.044-0.664-0.064-1.015-0.06
		l-0.269,0.003h-0.114v-0.113v-0.266V16.4v-0.262v-0.113h0.114h0.262h15.205h0.266h0.113v0.113V16.4v0.539v0.238v0.104l-0.105,0.008
		l-0.239,0.021c-1.838,0.168-2.978,0.559-3.525,1.323c-0.54,0.765-0.506,1.93,0.016,3.655c0.113,0.378,0.239,0.753,0.357,1.095
		c0.118,0.349,0.239,0.659,0.332,0.915L99.984,54.72l10.207-29.292v-0.006c0.38-1.065,0.725-2.107,0.942-3.062
		c0.214-0.954,0.304-1.824,0.184-2.556c-0.118-0.691-0.434-1.27-1.039-1.699c-0.61-0.429-1.524-0.71-2.82-0.791l-0.249-0.015
		l-0.106-0.005v-0.108v-0.246V16.4v-0.262v-0.113h0.117h0.262h11.593h0.267h0.11v0.113V16.4z M98.469,23.933v-0.497v-0.248h0.248
		h11.18l-6.758,19.425V28.871c0-0.542-0.044-1.034-0.13-1.486c-0.088-0.446-0.22-0.847-0.393-1.202
		c-0.168-0.354-0.37-0.657-0.599-0.91c-0.229-0.255-0.484-0.46-0.767-0.612l-0.004-0.004c-0.29-0.163-0.593-0.28-0.917-0.357
		c-0.318-0.08-0.656-0.118-1.01-0.118h-0.604h-0.248V23.933z"/>
	<path fill-rule="evenodd" clip-rule="evenodd" fill="#FDFDFE" d="M117.063,98.007c-0.919-1.161-1.946-2.434-3.087-3.812
		c-1.147-1.383-2.059-2.55-2.748-3.506c-2.469,1.704-2.954,5.569-1.027,7.787C111.963,100.524,115.492,100.062,117.063,98.007
		 M115.903,84.359c0-3.987-4.1-3.958-4.876-1.243c-0.541,2.009,1.29,4.753,2.044,5.419C114.758,87.584,115.903,85.86,115.903,84.359
		 M126.103,90.689c-3.21,0.415-4.476,3.653-6.331,6.045c1.839,2.219,3.298,3.698,6.331,3.831v0.801h-6.066l-2.194-2.505
		c-2.311,2.456-5.31,3.943-8.672,2.418c-2.395-1.091-3.493-3.547-3.12-5.928c0.413-2.642,2.387-4.178,4.529-5.532
		c-1.556-2.059-3.396-4.465-2.115-7.17c2.209-4.355,9.343-3.548,9.343,1.425c0,2.624-1.959,4.196-4.102,5.331
		c0.924,1.25,1.823,2.393,2.711,3.418c0.878,1.024,1.726,2.035,2.54,3.023c1.862-2.315,3.249-4.974-0.516-5.177v-0.771h7.662V90.689
		z"/>
	<path fill-rule="evenodd" clip-rule="evenodd" fill="#FDFDFE" d="M138.954,82.743v0.081v0.003v14.714
		c0,1.277,0.34,2.003,0.96,2.405c0.625,0.412,1.539,0.501,2.671,0.501c2.313,0,4.256-0.804,5.586-2.507
		c1.236-1.579,1.955-3.931,1.955-7.146c0-3.236-0.897-5.512-2.287-7.028c-1.671-1.822-4.064-2.557-6.511-2.557h-0.958h-0.066
		c-0.435,0.016-0.771,0.182-0.996,0.449C139.072,81.928,138.954,82.303,138.954,82.743 M133.093,81.071v-0.826v-0.037h0.035h8.929
		c3.054,0,6.272,0.875,8.556,2.967c1.861,1.707,3.09,4.219,3.09,7.723c0,3.468-1.13,5.994-2.993,7.688
		c-2.097,1.901-5.121,2.765-8.522,2.765h-9.059h-0.035v-0.037v-0.827v-0.039h0.035c0.797,0,1.381-0.14,1.783-0.392
		c0.425-0.266,0.644-0.663,0.692-1.161c0.088-0.833,0.164-2.12,0.215-3.633c0.055-1.43,0.083-3.057,0.083-4.697
		c0-1.589-0.016-3.11-0.061-4.417c-0.047-1.311-0.121-2.409-0.237-3.147c-0.078-0.555-0.217-1.031-0.574-1.36
		c-0.354-0.335-0.936-0.527-1.901-0.527h-0.035V81.071z"/>
	<path fill="#FDFDFE" d="M156.281,81.454c-0.372-0.24-0.966-0.342-1.937-0.342h-0.036v-0.041v-0.826v-0.037h0.036h3.366h6.781h5.468
		h0.031v0.037v4.527v0.037h-0.031h-0.7h-0.028l-0.009-0.026l-0.194-0.696c-0.264-0.934-0.625-1.681-1.222-2.188
		c-0.588-0.512-1.414-0.786-2.611-0.786h-3.079c-0.781,0-1.214,0.207-1.462,0.514c-0.253,0.302-0.319,0.707-0.349,1.098
		c-0.067,0.596-0.135,2.049-0.199,4.92v2.377l2.143-0.102c0.735-0.037,1.53-0.337,2.095-0.933c0.465-0.495,0.779-1.186,0.779-2.098
		v-0.495v-0.042h0.04h0.625h0.037v0.042v7.938v0.041h-0.037h-0.625h-0.04v-0.041v-0.499c0-0.937-0.295-1.631-0.76-2.108
		c-0.542-0.55-1.308-0.813-2.113-0.831l-2.144-0.063l0.015,1.46c0.022,2.572,0.041,4.564,0.151,6.046
		c0.051,0.709,0.45,1.241,1.186,1.599c0.75,0.365,1.849,0.547,3.273,0.547h0.595c1.134,0,2.071-0.214,2.815-0.672
		c0.753-0.458,1.321-1.165,1.717-2.149l0.725-1.817l0.011-0.026h0.022h0.625h0.04v0.045l-0.361,5.453l-0.004,0.037h-0.036h-16.535
		h-0.036v-0.037v-0.827v-0.039h0.036c0.971,0,1.578-0.045,1.95-0.247c0.367-0.204,0.517-0.577,0.56-1.236
		c0.066-0.896,0.13-2.011,0.183-3.398c0.048-1.387,0.083-3.052,0.083-5.038c0-1.874-0.025-3.4-0.07-4.689
		c-0.048-1.288-0.112-2.336-0.195-3.244C156.792,82.062,156.649,81.692,156.281,81.454"/>
	<path fill-rule="evenodd" clip-rule="evenodd" fill="#FDFDFE" d="M172.756,81.111h-0.89h-0.038v-0.04v-0.826v-0.037h0.038h8.202
		h0.036v0.037v0.826v0.04h-0.036h-0.631c-0.419,0-0.766,0.067-1.008,0.199c-0.217,0.12-0.343,0.296-0.343,0.523
		c0,0.174,0.045,0.418,0.133,0.719c0.093,0.318,0.225,0.696,0.395,1.12v0.002l5.123,13.005l4.463-10.86
		c0.313-0.76,0.586-1.45,0.781-2.053c0.188-0.603,0.306-1.11,0.306-1.503c0-0.377-0.13-0.662-0.367-0.853
		c-0.251-0.201-0.619-0.3-1.081-0.3h-0.995h-0.037v-0.04v-0.826v-0.037h0.037h6.648h0.035v0.037v0.826v0.04h-0.035h-0.628
		c-0.601,0-1.114,0.229-1.588,0.723c-0.474,0.501-0.911,1.275-1.354,2.357l-6.947,17.159h-0.896l-7.338-18.278
		c-0.313-0.771-0.63-1.265-0.954-1.561C173.471,81.213,173.13,81.111,172.756,81.111"/>
	<path fill-rule="evenodd" clip-rule="evenodd" fill="#FDFDFE" d="M189.443,105.671c0.285-0.257,0.694-0.363,1.129-0.363h0.23h0.037
		v0.036c0.035,0.943,0.367,1.505,0.911,2.038c0.555,0.536,1.337,0.837,2.258,0.837c1.035,0,1.934-0.244,2.573-1.045
		c0.645-0.805,1.028-1.969,1.028-4.207V83.554c0-0.932-0.184-1.543-0.541-1.921c-0.345-0.376-0.87-0.521-1.536-0.521h-0.827h-0.037
		v-0.04v-0.826v-0.037h0.037h8.763h0.037v0.037v0.826v0.04h-0.037h-0.725c-0.853,0-1.381,0.146-1.694,0.518
		c-0.313,0.376-0.419,0.993-0.419,1.925v18.52c0,2.473-0.688,4.181-1.741,5.312c-1.3,1.384-3.163,1.903-5.011,1.903
		c-1.229,0-2.51-0.283-3.443-0.782c-0.832-0.448-1.389-1.075-1.389-1.836C189.047,106.214,189.194,105.888,189.443,105.671"/>
	<path fill-rule="evenodd" clip-rule="evenodd" fill="#FDFDFE" d="M206.201,81.071v-0.826v-0.037h0.035h8.464h0.038v0.037v0.826
		v0.041H214.7c-0.996,0-1.604,0.098-1.973,0.329c-0.354,0.234-0.483,0.605-0.533,1.155c-0.114,0.961-0.183,1.96-0.22,3.212
		c-0.037,1.247-0.044,2.755-0.044,4.722c0,1.986,0.034,3.648,0.084,5.035c0.047,1.388,0.116,2.502,0.18,3.398
		c0.05,0.659,0.179,1.031,0.533,1.236c0.367,0.202,0.977,0.247,1.973,0.247h0.038v0.039v0.827v0.037H214.7h-8.464h-0.035v-0.037
		v-0.827v-0.039h0.035c0.972,0,1.577-0.045,1.95-0.247c0.365-0.205,0.508-0.577,0.562-1.236c0.062-0.896,0.13-2.011,0.179-3.398
		c0.05-1.387,0.083-3.049,0.083-5.035c0-1.868-0.026-3.396-0.069-4.686c-0.047-1.288-0.112-2.338-0.192-3.248
		c-0.065-0.531-0.213-0.902-0.576-1.141c-0.371-0.242-0.966-0.344-1.936-0.344h-0.035V81.071z"/>
	<path fill-rule="evenodd" clip-rule="evenodd" fill="#FDFDFE" d="M1.184,81.111H0.288H0.253v-0.04v-0.826v-0.037h0.035h8.204h0.035
		v0.037v0.826v0.04H8.492H7.864c-0.42,0-0.762,0.067-1.004,0.199c-0.222,0.12-0.348,0.296-0.348,0.523
		c0,0.174,0.046,0.418,0.133,0.719c0.088,0.318,0.222,0.696,0.393,1.12v0.002l5.127,13.005l4.46-10.86
		c0.315-0.76,0.586-1.45,0.783-2.053c0.19-0.603,0.308-1.11,0.308-1.503c0-0.377-0.133-0.662-0.372-0.853
		c-0.251-0.201-0.618-0.3-1.08-0.3H15.27h-0.036v-0.04v-0.826v-0.037h0.036h6.649h0.039v0.037v0.826v0.04h-0.039h-0.631
		c-0.6,0-1.111,0.229-1.583,0.723c-0.477,0.501-0.913,1.275-1.356,2.357l-7.043,17.399l-0.007,0.024h-0.028h-0.628h-0.025
		l-0.01-0.024L3.163,83.072c-0.308-0.771-0.619-1.265-0.945-1.561C1.892,81.213,1.554,81.111,1.184,81.111"/>
	<path fill-rule="evenodd" clip-rule="evenodd" fill="#FDFDFE" d="M22.962,81.071v-0.826v-0.037H23h8.468h0.037v0.037v0.826v0.041
		h-0.037c-1.001,0-1.607,0.098-1.973,0.329c-0.358,0.234-0.486,0.605-0.536,1.155c-0.118,0.961-0.185,1.96-0.221,3.212
		c-0.035,1.247-0.044,2.755-0.044,4.722c0,1.986,0.031,3.648,0.08,5.035c0.051,1.388,0.118,2.502,0.185,3.398
		c0.05,0.659,0.174,1.031,0.536,1.236c0.363,0.202,0.972,0.247,1.973,0.247h0.037v0.039v0.827v0.037h-0.037H23h-0.038v-0.037v-0.827
		v-0.039H23c0.972,0,1.577-0.045,1.951-0.247c0.364-0.205,0.509-0.577,0.558-1.236c0.068-0.896,0.136-2.011,0.183-3.398
		c0.047-1.387,0.081-3.049,0.081-5.035c0-1.868-0.025-3.396-0.071-4.686c-0.045-1.288-0.112-2.338-0.192-3.248
		c-0.067-0.531-0.21-0.902-0.574-1.141c-0.367-0.242-0.967-0.344-1.935-0.344h-0.038V81.071z"/>
	<path fill-rule="evenodd" clip-rule="evenodd" fill="#FDFDFE" d="M34.116,95.916c0.331-0.489,0.79-0.76,1.208-0.76h0.17h0.027
		l0.01,0.033c0.342,1.86,0.847,3.243,1.688,4.161c0.841,0.911,2.021,1.361,3.729,1.361c1.327,0,2.473-0.31,3.262-0.986
		c0.714-0.606,1.129-1.519,1.129-2.778c0-0.818-0.195-1.598-0.765-2.33c-0.572-0.735-1.513-1.424-3.013-2.069l-0.413-0.17
		c-3.625-1.543-6.554-2.787-6.554-6.476c0-1.756,0.749-3.278,1.98-4.367c1.24-1.102,2.981-1.753,4.938-1.753
		c1.68,0,3.162,0.422,4.231,1.085c1.137,0.698,1.825,1.658,1.825,2.654c0,0.552-0.151,0.977-0.43,1.27
		c-0.28,0.3-0.687,0.454-1.202,0.454h-0.196h-0.03l-0.006-0.034c-0.164-1.396-0.458-2.49-1.108-3.23
		c-0.643-0.742-1.643-1.135-3.221-1.135c-1.192,0-2.227,0.264-2.943,0.85c-0.637,0.523-1.019,1.305-1.019,2.388
		c0,1.048,0.352,1.892,1.085,2.622c0.734,0.734,1.856,1.362,3.388,1.973c1.988,0.795,3.624,1.548,4.758,2.574
		c1.145,1.03,1.781,2.325,1.781,4.206c0,1.935-0.856,3.437-2.159,4.492c-1.497,1.211-3.586,1.831-5.65,1.831
		c-2.212,0-3.863-0.444-5.005-1.121c-1.346-0.801-1.977-1.933-1.977-3.051C33.635,96.907,33.828,96.33,34.116,95.916"/>
	<path fill-rule="evenodd" clip-rule="evenodd" fill="#FDFDFE" d="M83.68,93.038h6.8l-3.414-8.394L83.68,93.038z M80.81,97.693
		l7.095-17.463l0.013-0.022h0.022h0.799h0.021l0.011,0.022l7.426,18.254c0.276,0.674,0.511,1.168,0.841,1.491
		c0.328,0.318,0.77,0.472,1.469,0.472h0.565h0.033v0.039v0.826v0.038H99.07h-8.307h-0.034v-0.038v-0.826v-0.039h0.034h0.831
		c0.407,0,0.712-0.063,0.915-0.2c0.201-0.133,0.302-0.336,0.302-0.624c0-0.11-0.038-0.289-0.101-0.494
		c-0.057-0.211-0.141-0.449-0.228-0.681l-1.711-4.442h-7.386l-1.713,4.143c-0.105,0.27-0.203,0.556-0.272,0.834
		c-0.053,0.233-0.087,0.466-0.087,0.677c0,0.278,0.148,0.475,0.423,0.603c0.277,0.129,0.685,0.186,1.194,0.186h1.354h0.036v0.039
		v0.826v0.038h-0.036h-6.943h-0.039v-0.038v-0.826v-0.039h0.039h0.663c0.635,0,1.119-0.153,1.557-0.571
		C80.001,99.453,80.388,98.764,80.81,97.693"/>
	<path fill-rule="evenodd" clip-rule="evenodd" fill="#FDFDFE" d="M67.726,80.208l1.296,3.289l0.009,0.02l0.007,0.018l0.04,0.097
		l0.006,0.022l3.051,7.735l2.083,5.291l4.462-10.86c0.315-0.759,0.586-1.45,0.78-2.054c0.192-0.602,0.308-1.11,0.308-1.503
		c0-0.376-0.132-0.663-0.37-0.852c-0.247-0.201-0.615-0.3-1.08-0.3h-0.993h-0.036v-0.038v-0.828v-0.037h0.036h6.652h0.037v0.037
		v0.828v0.038h-0.037h-0.635c-0.598,0-1.113,0.229-1.582,0.723c-0.477,0.501-0.912,1.275-1.36,2.357l-6.942,17.159h-0.892
		L66.177,85.46l-6.432,15.891h-0.892l-7.347-18.278c-0.312-0.771-0.62-1.263-0.947-1.561c-0.322-0.299-0.661-0.4-1.033-0.4h-0.892
		h-0.042v-0.038v-0.828v-0.037h0.042h8.201h0.039v0.037v0.828v0.038h-0.039h-0.631c-0.414,0-0.762,0.067-1.001,0.199
		c-0.221,0.12-0.35,0.296-0.35,0.523c0,0.174,0.049,0.418,0.134,0.719c0.089,0.318,0.224,0.696,0.392,1.12v0.002l5.125,13.005
		l2.236-5.442l4.589-11.029H67.726z"/>
	<path fill-rule="evenodd" clip-rule="evenodd" fill="#FDFDFE" d="M53.776,108.188v0.031v5.449c0,0.464,0.124,0.726,0.344,0.869
		c0.229,0.147,0.561,0.182,0.976,0.182c0.846,0,1.561-0.292,2.047-0.92c0.451-0.579,0.714-1.445,0.714-2.629
		c0-1.19-0.325-2.029-0.837-2.583c-0.616-0.669-1.493-0.937-2.392-0.937h-0.352h-0.03c-0.148,0.005-0.267,0.064-0.346,0.153
		C53.817,107.9,53.776,108.033,53.776,108.188 M51.552,107.57v-0.306v-0.043h0.04h3.31c1.133,0,2.333,0.326,3.185,1.106
		c0.692,0.638,1.153,1.574,1.153,2.88c0,1.294-0.419,2.236-1.122,2.869c-0.778,0.709-1.905,1.03-3.17,1.03h-3.355h-0.04v-0.041
		v-0.308v-0.04h0.04c0.288,0,0.5-0.048,0.644-0.14c0.147-0.097,0.225-0.234,0.246-0.41c0.03-0.309,0.059-0.784,0.079-1.345
		c0.019-0.528,0.032-1.129,0.032-1.738c0-0.588-0.007-1.154-0.029-1.636c-0.011-0.484-0.04-0.892-0.082-1.166
		c-0.031-0.201-0.081-0.369-0.208-0.483c-0.122-0.119-0.332-0.188-0.682-0.188h-0.04V107.57z"/>
	<path fill-rule="evenodd" clip-rule="evenodd" fill="#FDFDFE" d="M59.953,110.18v-0.248v-0.037l0.036-0.002l2.033-0.174
		l0.052-0.003l-0.008,0.05c-0.007,0.107-0.014,0.197-0.024,0.289c-0.051,0.504-0.095,0.946-0.095,1.815
		c0,0.348,0.011,0.757,0.026,1.141c0.023,0.583,0.055,1.121,0.07,1.307c0.016,0.211,0.112,0.329,0.239,0.389
		c0.129,0.064,0.304,0.072,0.452,0.072h0.126h0.04v0.044v0.246v0.039h-0.04h-2.865h-0.043v-0.039v-0.246v-0.044h0.043h0.181
		c0.155,0,0.31-0.008,0.433-0.072c0.12-0.06,0.207-0.178,0.237-0.393c0.022-0.231,0.042-0.487,0.058-0.771
		c0.014-0.284,0.02-0.597,0.026-0.939c0.013-0.638-0.028-1.233-0.065-1.705l-0.004-0.044c-0.028-0.274-0.123-0.435-0.275-0.522
		c-0.152-0.091-0.359-0.111-0.59-0.111h-0.043V110.18z M60.743,106.931c0.146-0.146,0.35-0.233,0.587-0.233
		c0.229,0,0.436,0.092,0.583,0.237c0.149,0.151,0.243,0.358,0.243,0.586c0,0.222-0.094,0.432-0.246,0.584
		c-0.145,0.148-0.351,0.242-0.58,0.242c-0.237,0-0.438-0.092-0.583-0.236c-0.15-0.155-0.248-0.363-0.248-0.59
		C60.499,107.291,60.594,107.083,60.743,106.931"/>
	<path fill-rule="evenodd" clip-rule="evenodd" fill="#FDFDFE" d="M66.86,112.282c-0.022,0.015-0.703-0.015-1.329,0.271
		c-1.204,0.553-1.38,2.165-0.241,2.165C66.461,114.636,66.86,113.23,66.86,112.282 M64.825,110.354
		c-0.248,0.216-0.373,0.535-0.413,0.858l-0.009,0.036h-0.031h-0.113l-0.008-0.003c-0.176-0.03-0.32-0.071-0.425-0.159
		c-0.499-0.411,0.11-0.996,0.494-1.185c0.364-0.182,0.853-0.305,1.406-0.305c0.04,0,0.089,0.001,0.136,0.004
		c0.509,0.02,1.017,0.148,1.398,0.421c0.384,0.275,0.64,0.701,0.64,1.302v0.081l-0.097,2.561c0,0.025-0.005,0.052-0.005,0.078
		c0,0.206,0.046,0.371,0.116,0.483c0.078,0.111,0.181,0.172,0.313,0.179h0.022c0.091,0,0.185-0.029,0.265-0.079
		c0.105-0.058,0.188-0.14,0.257-0.224l0.029-0.04l0.033,0.038l0.124,0.146l0.02,0.025l-0.02,0.026
		c-0.12,0.193-0.28,0.375-0.481,0.498c-0.168,0.104-0.371,0.171-0.605,0.171c-0.342,0-0.596-0.108-0.769-0.297
		c-0.167-0.182-0.267-0.435-0.306-0.743c-0.189,0.299-0.454,0.545-0.755,0.724c-0.184,0.109-0.398,0.192-0.63,0.249
		c-1.593,0.38-2.62-0.909-1.559-2.2c0.438-0.524,1.146-0.802,1.832-0.97c0.271-0.065,0.611-0.095,0.86-0.201
		c0.2-0.09,0.354-0.282,0.354-0.573c0-0.56-0.189-0.938-0.597-1.1C65.862,109.979,65.192,110.036,64.825,110.354"/>
	<path fill-rule="evenodd" clip-rule="evenodd" fill="#FDFDFE" d="M69.251,110.164v-0.232v-0.037l0.036-0.002l1.822-0.174h0.047
		v0.039l0.109,0.872c0.147-0.286,0.359-0.543,0.628-0.728c0.278-0.189,0.611-0.305,1.013-0.305c0.411,0,0.805,0.095,1.125,0.305
		c0.26,0.172,0.479,0.417,0.607,0.754c0.165-0.34,0.39-0.59,0.669-0.766v-0.002c0.318-0.199,0.703-0.291,1.128-0.291
		c0.501,0,0.964,0.16,1.282,0.499c0.285,0.302,0.458,0.749,0.458,1.356c0,0.468-0.022,0.983-0.042,1.45
		c-0.031,0.613-0.052,1.152-0.018,1.41c0.028,0.215,0.125,0.333,0.244,0.393c0.133,0.064,0.295,0.072,0.448,0.072h0.27h0.042v0.044
		v0.244v0.041h-0.042h-2.144h-0.048l0.009-0.045c0.07-0.551,0.129-1.073,0.17-1.644c0.041-0.569,0.069-1.185,0.073-1.915v-0.005
		c0.009-0.496-0.073-0.855-0.243-1.089c-0.171-0.229-0.426-0.336-0.78-0.336c-0.423,0-0.765,0.201-1.003,0.539
		c-0.253,0.354-0.391,0.86-0.391,1.439c0,0.578,0.004,0.996,0.011,1.346c0.012,0.343,0.026,0.623,0.049,0.917v0.002
		c0.021,0.211,0.115,0.329,0.242,0.389c0.132,0.064,0.301,0.072,0.455,0.072h0.245h0.042v0.044v0.244v0.041h-0.042h-3.026h-0.042
		v-0.041v-0.244v-0.044h0.042h0.244c0.155,0,0.317-0.008,0.446-0.072c0.124-0.06,0.218-0.178,0.25-0.393
		c0.011-0.192,0.028-0.535,0.042-0.923c0.012-0.547,0.016-1.184,0.016-1.604c0-0.565-0.081-0.998-0.253-1.287
		c-0.163-0.28-0.417-0.426-0.77-0.426c-0.419,0-0.767,0.205-1,0.548c-0.254,0.365-0.396,0.882-0.396,1.481
		c0,0.576,0.003,0.983,0.015,1.315c0.012,0.336,0.029,0.603,0.05,0.896v0.002c0.018,0.211,0.113,0.329,0.24,0.389
		c0.13,0.064,0.296,0.072,0.453,0.072h0.244h0.04v0.044v0.244v0.041h-0.04h-3.05h-0.045v-0.041v-0.244v-0.044h0.045h0.245
		c0.154,0,0.311-0.008,0.435-0.072c0.116-0.06,0.205-0.178,0.234-0.393c0.023-0.231,0.042-0.487,0.056-0.771
		c0.017-0.284,0.023-0.597,0.03-0.939c0.006-0.306,0-0.6-0.011-0.88c-0.015-0.322-0.035-0.62-0.064-0.877
		c-0.022-0.166-0.129-0.33-0.292-0.453c-0.152-0.112-0.35-0.185-0.569-0.185h-0.042V110.164z"/>
	<path fill-rule="evenodd" clip-rule="evenodd" fill="#FDFDFE" d="M83.502,110.682c-0.278-0.414-0.696-0.607-1.189-0.607
		c-0.498,0-0.912,0.193-1.194,0.607c-0.265,0.386-0.418,0.964-0.418,1.752s0.151,1.366,0.417,1.755
		c0.283,0.411,0.695,0.603,1.195,0.603c0.499,0,0.913-0.191,1.194-0.603c0.263-0.389,0.418-0.967,0.418-1.755
		S83.77,111.067,83.502,110.682 M80.286,110.462c0.554-0.55,1.309-0.864,2.026-0.864s1.473,0.314,2.024,0.864
		c0.495,0.486,0.823,1.164,0.823,1.972s-0.328,1.481-0.823,1.968c-0.552,0.551-1.307,0.867-2.024,0.867s-1.473-0.316-2.026-0.867
		c-0.491-0.486-0.821-1.16-0.821-1.968S79.795,110.948,80.286,110.462"/>
	<path fill-rule="evenodd" clip-rule="evenodd" fill="#FDFDFE" d="M85.874,110.164v-0.232v-0.037l0.037-0.002l1.87-0.174h0.045
		l0.002,0.04l0.062,0.848c0.152-0.312,0.372-0.537,0.629-0.696c0.358-0.222,0.784-0.313,1.183-0.313c0.502,0,0.962,0.16,1.288,0.499
		c0.28,0.302,0.454,0.749,0.454,1.356c0,0.468-0.023,0.985-0.045,1.451c-0.027,0.612-0.052,1.151-0.019,1.409
		c0.031,0.215,0.124,0.333,0.249,0.393c0.133,0.064,0.292,0.072,0.448,0.072h0.305h0.043v0.044v0.244v0.041h-0.043H90.19h-0.05
		l0.005-0.045c0.076-0.551,0.13-1.073,0.173-1.644c0.043-0.569,0.068-1.185,0.075-1.915v-0.005c0.004-0.496-0.075-0.855-0.24-1.089
		c-0.162-0.229-0.42-0.336-0.771-0.336c-0.457,0-0.825,0.186-1.075,0.511c-0.264,0.337-0.402,0.82-0.402,1.396
		c0,0.579,0.004,1.015,0.013,1.378c0.006,0.367,0.021,0.663,0.048,0.957v0.002c0.019,0.211,0.108,0.329,0.24,0.389
		c0.128,0.064,0.296,0.072,0.454,0.072h0.12h0.04v0.044v0.244v0.041h-0.04h-2.928h-0.043v-0.041v-0.244v-0.044h0.043h0.243
		c0.154,0,0.313-0.008,0.433-0.072c0.121-0.06,0.209-0.178,0.236-0.393c0.027-0.231,0.044-0.487,0.06-0.771
		c0.014-0.284,0.021-0.597,0.026-0.939c0.013-0.648-0.035-1.267-0.071-1.742v-0.016c-0.022-0.28-0.125-0.439-0.271-0.526
		c-0.151-0.091-0.362-0.11-0.594-0.11h-0.039V110.164z"/>
	<path fill-rule="evenodd" clip-rule="evenodd" fill="#FDFDFE" d="M96.611,114.109c0.283-0.438,0.433-1.058,0.433-1.764v-0.391
		c0-0.621-0.157-1.065-0.407-1.37c-0.294-0.358-0.708-0.511-1.119-0.511c-0.554,0-0.95,0.199-1.207,0.59
		c-0.261,0.395-0.383,0.986-0.383,1.77c0,0.754,0.154,1.323,0.421,1.708c0.28,0.409,0.684,0.614,1.157,0.614
		C95.977,114.756,96.351,114.512,96.611,114.109 M96.076,107.143v-0.248v-0.037l0.038-0.006l2.104-0.154l0.053-0.006l-0.004,0.051
		c-0.042,0.351-0.076,1.181-0.105,2.125c-0.033,1.093-0.056,2.338-0.056,3.173c0,0.285,0,0.666,0.01,1.018
		c0.004,0.356,0.018,0.694,0.04,0.903c0.019,0.217,0.108,0.378,0.259,0.477c0.152,0.104,0.384,0.146,0.689,0.135l0.036-0.003
		l0.004,0.038l0.029,0.198l0.002,0.036l-0.037,0.008l-1.912,0.381l-0.039,0.006l-0.008-0.042l-0.143-0.859
		c-0.181,0.26-0.441,0.481-0.732,0.644c-0.333,0.182-0.707,0.29-1.067,0.29c-0.689,0-1.348-0.276-1.813-0.805
		c-0.416-0.475-0.684-1.155-0.684-2.03c0-0.857,0.302-1.528,0.747-2.005c0.518-0.547,1.235-0.831,1.935-0.831
		c0.325,0,0.697,0.069,1.038,0.233c0.241,0.109,0.461,0.275,0.629,0.494c0-0.471-0.008-0.973-0.019-1.405
		c-0.016-0.501-0.034-0.915-0.054-1.102c-0.017-0.206-0.116-0.356-0.264-0.463c-0.163-0.115-0.39-0.171-0.634-0.171h-0.043V107.143z
		"/>
	<path fill-rule="evenodd" clip-rule="evenodd" fill="#FDFDFE" d="M99.761,113.573c0.104-0.12,0.251-0.189,0.424-0.189h0.025h0.032
		l0.008,0.03c0.117,0.446,0.272,0.795,0.518,1.023c0.243,0.233,0.577,0.354,1.069,0.354c0.293,0,0.607-0.093,0.828-0.264
		c0.19-0.148,0.318-0.351,0.318-0.601c0-0.651-0.455-0.812-1.592-1.207c-0.1-0.038-0.212-0.075-0.378-0.138
		c-0.344-0.125-0.623-0.281-0.813-0.497c-0.196-0.221-0.305-0.498-0.305-0.863c0-0.473,0.21-0.884,0.585-1.173
		c0.366-0.283,0.876-0.451,1.487-0.451c0.498,0,0.941,0.087,1.26,0.257c0.294,0.16,0.477,0.393,0.477,0.691
		c0,0.14-0.069,0.27-0.183,0.371c-0.106,0.092-0.252,0.155-0.421,0.162h-0.112h-0.038l-0.003-0.041
		c-0.013-0.372-0.114-0.614-0.303-0.759c-0.184-0.149-0.46-0.205-0.823-0.205c-0.243,0-0.49,0.088-0.671,0.237
		c-0.168,0.134-0.276,0.322-0.276,0.542c0,0.532,0.323,0.653,1.409,1.059c0.161,0.062,0.332,0.122,0.501,0.189
		c0.297,0.111,0.597,0.239,0.82,0.452c0.229,0.212,0.38,0.508,0.38,0.956c0,0.522-0.241,0.961-0.657,1.273
		c-0.412,0.304-0.999,0.485-1.688,0.485c-0.583,0-1.096-0.125-1.464-0.343c-0.365-0.22-0.583-0.524-0.583-0.888
		C99.593,113.854,99.656,113.69,99.761,113.573"/>
	<path fill-rule="evenodd" clip-rule="evenodd" fill="#FDFDFE" d="M107.968,113.051c0.128-0.186,0.306-0.293,0.473-0.293h0.06h0.035
		l0.008,0.034c0.126,0.686,0.313,1.192,0.62,1.529c0.305,0.333,0.733,0.495,1.36,0.495c0.486,0,0.906-0.114,1.191-0.357
		c0.254-0.221,0.406-0.553,0.406-1.011c0-0.297-0.071-0.579-0.278-0.845c-0.208-0.267-0.552-0.52-1.105-0.759l-0.153-0.063
		c-1.35-0.573-2.443-1.036-2.443-2.423c0-0.657,0.279-1.231,0.742-1.637c0.465-0.412,1.118-0.659,1.845-0.659
		c0.631,0,1.189,0.159,1.586,0.407c0.431,0.264,0.685,0.626,0.685,1.007c0,0.211-0.053,0.377-0.16,0.491
		c-0.107,0.116-0.27,0.173-0.467,0.173h-0.072h-0.037l-0.01-0.037c-0.056-0.511-0.166-0.91-0.399-1.181
		c-0.232-0.268-0.596-0.409-1.17-0.409c-0.44,0-0.814,0.098-1.075,0.306c-0.229,0.192-0.368,0.475-0.368,0.864
		c0,0.383,0.132,0.688,0.396,0.951c0.269,0.273,0.68,0.501,1.246,0.729c0.738,0.293,1.344,0.574,1.771,0.959
		c0.425,0.386,0.67,0.872,0.67,1.578c0,0.726-0.324,1.288-0.814,1.683c-0.555,0.456-1.336,0.686-2.108,0.686
		c-0.825,0-1.443-0.166-1.867-0.42c-0.51-0.304-0.749-0.729-0.749-1.153C107.783,113.43,107.856,113.211,107.968,113.051"/>
	<path fill-rule="evenodd" clip-rule="evenodd" fill="#FDFDFE" d="M114.278,110.18v-0.248v-0.037l0.038-0.002l2.033-0.174
		l0.049-0.003l-0.005,0.05c-0.008,0.107-0.014,0.197-0.027,0.289c-0.051,0.504-0.096,0.946-0.096,1.815
		c0,0.348,0.013,0.757,0.03,1.141c0.025,0.583,0.056,1.121,0.071,1.307c0.014,0.211,0.113,0.329,0.236,0.389
		c0.133,0.064,0.303,0.072,0.454,0.072h0.128h0.037v0.044v0.246v0.039h-0.037h-2.869h-0.043v-0.039v-0.246v-0.044h0.043h0.183
		c0.154,0,0.31-0.008,0.433-0.072c0.114-0.06,0.207-0.178,0.233-0.393c0.029-0.231,0.046-0.487,0.06-0.771
		c0.012-0.284,0.024-0.597,0.028-0.939c0.017-0.638-0.036-1.233-0.069-1.705l-0.002-0.044c-0.027-0.274-0.126-0.435-0.272-0.522
		c-0.156-0.091-0.359-0.111-0.593-0.111h-0.043V110.18z M115.07,106.931c0.146-0.146,0.35-0.233,0.584-0.233
		c0.23,0,0.438,0.092,0.585,0.237c0.149,0.151,0.239,0.358,0.239,0.586c0,0.222-0.093,0.432-0.24,0.584
		c-0.151,0.148-0.354,0.242-0.584,0.242c-0.234,0-0.435-0.092-0.58-0.236c-0.154-0.155-0.248-0.363-0.248-0.59
		C114.826,107.291,114.92,107.083,115.07,106.931"/>
	<path fill-rule="evenodd" clip-rule="evenodd" fill="#FDFDFE" d="M117.759,110.164v-0.232v-0.037l0.036-0.002l1.876-0.174h0.042
		l0.001,0.04l0.063,0.848c0.154-0.312,0.374-0.537,0.634-0.696c0.356-0.222,0.779-0.313,1.171-0.313c0.514,0,0.968,0.16,1.291,0.499
		c0.282,0.302,0.456,0.749,0.456,1.356c0,0.468-0.024,0.985-0.044,1.451c-0.03,0.612-0.052,1.151-0.017,1.409
		c0.029,0.215,0.123,0.333,0.246,0.393c0.13,0.064,0.291,0.072,0.447,0.072h0.306h0.041v0.044v0.244v0.041h-0.041h-2.19h-0.05
		l0.004-0.045c0.073-0.551,0.134-1.073,0.174-1.644c0.042-0.569,0.07-1.185,0.073-1.915v-0.005c0.007-0.496-0.072-0.855-0.235-1.089
		c-0.163-0.229-0.425-0.336-0.774-0.336c-0.459,0-0.822,0.186-1.074,0.511c-0.263,0.337-0.405,0.82-0.405,1.396
		c0,0.579,0.003,1.015,0.014,1.378c0.008,0.367,0.022,0.663,0.05,0.957v0.002c0.015,0.211,0.11,0.329,0.237,0.389
		c0.131,0.064,0.296,0.072,0.455,0.072h0.123h0.04v0.044v0.244v0.041h-0.04h-2.932h-0.042v-0.041v-0.244v-0.044h0.042h0.245
		c0.16,0,0.308-0.008,0.436-0.072c0.117-0.06,0.209-0.178,0.237-0.393c0.022-0.231,0.041-0.487,0.054-0.771
		c0.014-0.284,0.023-0.597,0.032-0.939c0.009-0.648-0.04-1.267-0.078-1.742v-0.016c-0.023-0.28-0.116-0.439-0.27-0.526
		c-0.154-0.091-0.36-0.11-0.596-0.11h-0.037V110.164z"/>
	<path fill-rule="evenodd" clip-rule="evenodd" fill="#FDFDFE" d="M128.537,114.306c0.208-0.268,0.294-0.618,0.354-0.938
		l0.008-0.034h0.036h0.072c0.126,0,0.291,0.069,0.416,0.202c0.097,0.106,0.164,0.251,0.164,0.432c0,0.354-0.229,0.695-0.661,0.945
		c-0.385,0.213-0.924,0.355-1.598,0.355c-0.632,0-1.37-0.304-1.914-0.865c-0.451-0.469-0.763-1.114-0.763-1.906
		c0-0.823,0.321-1.513,0.803-2.011c0.549-0.564,1.291-0.889,1.982-0.889c0.596,0,1.067,0.148,1.413,0.355
		c0.426,0.267,0.654,0.629,0.654,0.925c0,0.213-0.073,0.367-0.185,0.47c-0.135,0.143-0.334,0.2-0.485,0.2h-0.119h-0.044v-0.044
		c0-0.482-0.095-0.829-0.302-1.059c-0.2-0.225-0.51-0.337-0.933-0.337c-0.451,0-0.855,0.208-1.136,0.635
		c-0.261,0.392-0.412,0.973-0.412,1.754c0,0.771,0.151,1.318,0.412,1.681c0.283,0.402,0.703,0.578,1.188,0.578
		C128.016,114.756,128.338,114.57,128.537,114.306"/>
	<path fill-rule="evenodd" clip-rule="evenodd" fill="#FDFDFE" d="M132.485,110.413c-0.221,0.223-0.386,0.554-0.474,0.987h2.449
		c-0.008-0.426-0.101-0.76-0.273-0.993c-0.176-0.232-0.447-0.358-0.833-0.358C133.021,110.049,132.72,110.17,132.485,110.413
		 M135.661,111.807v0.024v0.042h-0.039h-3.685c-0.006,0.064-0.009,0.131-0.014,0.197c-0.004,0.083-0.007,0.168-0.007,0.253
		c0,0.8,0.137,1.426,0.402,1.847c0.259,0.405,0.649,0.621,1.162,0.621c0.428,0,0.764-0.117,1.018-0.327
		c0.271-0.229,0.443-0.564,0.53-0.973l0.008-0.036h0.034h0.072c0.013,0,0.021,0,0.032,0.002c0.104,0.012,0.229,0.063,0.322,0.166
		c0.087,0.098,0.153,0.245,0.153,0.433v0.072c-0.029,0.336-0.279,0.624-0.674,0.824c-0.4,0.198-0.943,0.316-1.559,0.316
		c-0.751,0-1.49-0.303-2.026-0.826c-0.493-0.482-0.81-1.157-0.81-1.959c0-0.823,0.326-1.494,0.798-1.982
		c0.563-0.579,1.329-0.903,1.987-0.903h0.027c0.68,0.01,1.247,0.2,1.644,0.577C135.434,110.546,135.661,111.094,135.661,111.807"/>
	<path fill-rule="evenodd" clip-rule="evenodd" fill="#FDFDFE" d="M141.016,107.494c0.357-0.118,0.649-0.261,0.879-0.421
		l0.022-0.013h0.123h0.045v0.046c0,0.003-0.037,1.783-0.037,3.966c0,0.736,0.01,1.352,0.027,1.865
		c0.021,0.51,0.045,0.924,0.068,1.258c0.018,0.233,0.089,0.37,0.247,0.447c0.154,0.079,0.406,0.096,0.778,0.076l0.042-0.002v0.042
		v0.308v0.041h-0.042h-3.394h-0.045v-0.041v-0.308v-0.042l0.045,0.002c0.354,0.02,0.606,0.003,0.774-0.076
		c0.161-0.077,0.246-0.214,0.258-0.447c0.026-0.334,0.05-0.748,0.068-1.258c0.02-0.514,0.033-1.129,0.033-1.865
		c0-0.42-0.004-0.885-0.007-1.322c-0.005-0.417-0.007-0.812-0.007-1.102c0-0.193-0.052-0.334-0.137-0.432
		c-0.098-0.106-0.236-0.162-0.411-0.175h-0.621h-0.042v-0.045v-0.185v-0.034l0.03-0.005
		C140.228,107.708,140.653,107.612,141.016,107.494"/>
	<path fill-rule="evenodd" clip-rule="evenodd" fill="#FDFDFE" d="M148.171,108.061c-0.242-0.346-0.618-0.547-1.134-0.547
		c-0.479,0-0.843,0.176-1.095,0.55c-0.239,0.371-0.372,0.925-0.372,1.688c0,0.899,0.191,1.396,0.463,1.663
		c0.271,0.266,0.623,0.314,0.942,0.314c0.451,0,0.853-0.211,1.137-0.574c0.284-0.355,0.451-0.857,0.451-1.456
		C148.563,109.011,148.438,108.444,148.171,108.061 M144.701,113.309c0.119-0.163,0.295-0.257,0.489-0.257h0.046h0.035l0.006,0.039
		c0.056,0.5,0.191,0.969,0.477,1.293c0.24,0.27,0.578,0.433,1.052,0.433c0.592,0,1.026-0.315,1.313-0.937
		c0.278-0.599,0.426-1.479,0.463-2.641c-0.146,0.275-0.36,0.505-0.617,0.673c-0.315,0.204-0.695,0.315-1.112,0.315
		c-0.611,0-1.325-0.178-1.835-0.64c-0.396-0.358-0.668-0.89-0.668-1.645c0-0.82,0.316-1.524,0.81-2.03
		c0.518-0.535,1.239-0.853,2.002-0.853c0.832,0,1.543,0.369,2.036,1.042c0.473,0.646,0.748,1.579,0.748,2.738
		c0,1.296-0.338,2.387-0.904,3.162c-0.584,0.803-1.398,1.266-2.321,1.266c-0.664,0-1.192-0.145-1.555-0.369
		c-0.429-0.255-0.654-0.612-0.654-0.973C144.511,113.674,144.581,113.462,144.701,113.309"/>
	<path fill-rule="evenodd" clip-rule="evenodd" fill="#FDFDFE" d="M151.725,108.355l-0.021-1.055l-0.001-0.027l0.02-0.009
		l0.076-0.038l0.021-0.009l0.017,0.009c0.175,0.089,0.484,0.162,0.843,0.218c0.409,0.06,0.873,0.095,1.244,0.095
		c0.328,0,0.695-0.035,1.026-0.093c0.313-0.054,0.593-0.131,0.754-0.22l0.032-0.016l0.017,0.025l0.077,0.072l0.021,0.021
		l-0.017,0.024c-0.172,0.355-0.451,0.754-0.859,1.027c-0.307,0.207-0.686,0.345-1.151,0.333c-0.283-0.005-0.576-0.039-0.857-0.092
		c-0.29-0.055-0.569-0.127-0.816-0.211l-0.018,0.304c-0.036,0.771-0.077,1.594-0.139,2.152c0.156-0.232,0.361-0.421,0.6-0.559
		c0.3-0.175,0.649-0.271,1.012-0.271c0.661,0,1.318,0.245,1.796,0.705c0.425,0.406,0.7,0.981,0.7,1.703
		c0,0.89-0.309,1.565-0.791,2.034c-0.548,0.529-1.314,0.789-2.124,0.789c-0.718,0-1.287-0.125-1.669-0.358
		c-0.396-0.239-0.61-0.593-0.61-1.032c0-0.268,0.063-0.449,0.166-0.569c0.122-0.157,0.309-0.205,0.476-0.205h0.123h0.037
		l0.005,0.032c0.1,0.598,0.199,1.06,0.406,1.371c0.202,0.308,0.519,0.468,1.061,0.468c0.506,0,0.918-0.241,1.205-0.65
		c0.302-0.43,0.464-1.049,0.464-1.771c0-0.61-0.15-1.123-0.427-1.486c-0.268-0.357-0.648-0.567-1.099-0.567
		c-0.27,0-0.534,0.106-0.75,0.287c-0.224,0.188-0.411,0.459-0.528,0.79c-0.033,0.08-0.078,0.132-0.138,0.155
		c-0.055,0.027-0.13,0.027-0.212,0.006c-0.087-0.022-0.133-0.071-0.152-0.135c-0.022-0.055-0.02-0.119-0.011-0.179l0.016-0.195
		C151.62,110.424,151.725,109.292,151.725,108.355"/>
	<path fill-rule="evenodd" clip-rule="evenodd" fill="#FDFDFE" d="M161.562,108.432c-0.298-0.629-0.733-0.918-1.271-0.918
		c-0.535,0-0.979,0.29-1.282,0.925c-0.29,0.598-0.45,1.5-0.45,2.746c0,1.241,0.16,2.131,0.45,2.722c0.3,0.627,0.747,0.91,1.282,0.91
		c0.53,0,0.971-0.289,1.271-0.916c0.286-0.593,0.443-1.483,0.443-2.73C162.004,109.925,161.847,109.025,161.562,108.432
		 M157.991,108.258c0.604-0.78,1.443-1.197,2.299-1.197c0.851,0,1.684,0.419,2.278,1.195c0.536,0.696,0.876,1.684,0.876,2.914
		c0,1.236-0.34,2.221-0.873,2.911c-0.593,0.775-1.426,1.188-2.281,1.188c-0.857,0-1.699-0.406-2.301-1.177
		c-0.529-0.686-0.871-1.666-0.871-2.907C157.118,109.939,157.462,108.955,157.991,108.258"/>
	<path fill="#FDFDFE" d="M220.571,80.651h0.262c0.26,0,0.474-0.076,0.635-0.23c0.172-0.154,0.254-0.373,0.254-0.655
		c0-0.226-0.075-0.395-0.23-0.504c-0.151-0.104-0.346-0.16-0.573-0.16c-0.13,0-0.22,0.031-0.271,0.083
		c-0.05,0.058-0.076,0.147-0.076,0.269V80.651z M220.571,82.065c0,0.065,0.005,0.119,0.019,0.161
		c0.008,0.044,0.031,0.076,0.063,0.106c0.038,0.027,0.087,0.047,0.16,0.06c0.063,0.016,0.162,0.03,0.279,0.033l-0.016,0.206
		c-0.12,0-0.248-0.001-0.393-0.003c-0.143-0.004-0.319-0.004-0.526-0.004c-0.144,0-0.295,0-0.442,0.004
		c-0.151,0.002-0.263,0.003-0.337,0.003l-0.013-0.206c0.102-0.003,0.188-0.018,0.256-0.035c0.069-0.016,0.122-0.04,0.161-0.076
		c0.037-0.036,0.062-0.082,0.08-0.145c0.012-0.06,0.022-0.137,0.022-0.232v-2.549c0-0.131-0.035-0.214-0.096-0.26
		c-0.069-0.048-0.214-0.075-0.442-0.088l0.019-0.223c0.08,0,0.202,0.005,0.354,0.007c0.151,0.002,0.302,0.002,0.449,0.002
		c0.135,0,0.269-0.004,0.408-0.013c0.143-0.015,0.287-0.019,0.439-0.019c0.15,0,0.32,0.012,0.491,0.035
		c0.18,0.022,0.336,0.063,0.482,0.127c0.147,0.064,0.267,0.153,0.369,0.273c0.096,0.114,0.141,0.269,0.141,0.462
		c0,0.255-0.073,0.475-0.224,0.657c-0.162,0.176-0.347,0.313-0.57,0.397c0.081,0.148,0.159,0.297,0.238,0.436
		c0.07,0.142,0.138,0.275,0.203,0.396c0.064,0.116,0.129,0.226,0.178,0.312c0.047,0.092,0.093,0.16,0.132,0.213
		c0.04,0.062,0.085,0.119,0.126,0.157c0.037,0.039,0.082,0.071,0.139,0.093c0.047,0.021,0.106,0.036,0.174,0.05
		c0.065,0.009,0.148,0.019,0.246,0.021l-0.011,0.206c-0.104,0-0.243-0.001-0.405-0.003c-0.17-0.004-0.331-0.004-0.491-0.004h-0.247
		l-0.072,0.007c-0.026-0.052-0.063-0.127-0.109-0.228c-0.045-0.104-0.106-0.22-0.168-0.354c-0.071-0.135-0.147-0.283-0.235-0.447
		c-0.087-0.162-0.18-0.328-0.276-0.501c-0.043-0.063-0.082-0.108-0.109-0.133c-0.038-0.032-0.097-0.043-0.18-0.043h-0.267V82.065z
		 M217.907,80.741c0,0.442,0.086,0.861,0.249,1.246c0.171,0.389,0.397,0.727,0.679,1.016c0.283,0.287,0.618,0.513,0.995,0.678
		c0.388,0.164,0.791,0.248,1.228,0.248c0.434,0,0.842-0.084,1.22-0.248c0.381-0.165,0.716-0.391,1.001-0.678
		c0.279-0.289,0.503-0.627,0.671-1.016c0.167-0.385,0.25-0.804,0.25-1.246c0-0.441-0.083-0.86-0.25-1.248
		c-0.168-0.388-0.392-0.724-0.671-1.011c-0.285-0.287-0.62-0.517-1.001-0.679c-0.378-0.166-0.786-0.248-1.22-0.248
		c-0.437,0-0.84,0.082-1.228,0.248c-0.377,0.162-0.712,0.392-0.995,0.679c-0.281,0.287-0.508,0.623-0.679,1.011
		C217.993,79.881,217.907,80.3,217.907,80.741 M217.435,80.735c0-0.492,0.098-0.957,0.29-1.391c0.189-0.43,0.446-0.806,0.774-1.125
		c0.329-0.318,0.716-0.568,1.156-0.755c0.438-0.183,0.907-0.275,1.407-0.275c0.493,0,0.958,0.093,1.396,0.275
		c0.438,0.187,0.823,0.437,1.151,0.755c0.327,0.319,0.588,0.695,0.781,1.125c0.189,0.434,0.286,0.898,0.286,1.391
		c0,0.498-0.097,0.961-0.286,1.396c-0.193,0.432-0.454,0.805-0.781,1.127c-0.328,0.321-0.713,0.576-1.151,0.759
		c-0.438,0.187-0.902,0.276-1.396,0.276c-0.5,0-0.969-0.09-1.407-0.276c-0.44-0.183-0.827-0.438-1.156-0.759
		c-0.328-0.322-0.585-0.695-0.774-1.127C217.532,81.696,217.435,81.233,217.435,80.735"/>
</g>
</svg>
